<svg xmlns="http://www.w3.org/2000/svg" width="1400" height="920" viewBox="0 0 1400 920">
<defs><linearGradient id="bg" x1="0" y1="0" x2="1" y2="1"><stop stop-color="#080b12"/><stop offset="1" stop-color="#0d111a"/></linearGradient><filter id="shadow"><feDropShadow dx="0" dy="10" stdDeviation="16" flood-opacity=".35"/></filter></defs>
<rect width="1400" height="920" fill="url(#bg)"/><rect width="1400" height="58" fill="#090c13" stroke="#1b2230"/><circle cx="26" cy="29" r="4" fill="#69f3bc"/><text x="40" y="35" fill="#fff" font-family="Arial" font-size="19" font-weight="700">COMMAND DECK</text><text x="203" y="34" fill="#66748d" font-family="Arial" font-size="10" letter-spacing="2">BAITERMIN AGENT OPERATIONS</text><rect x="590" y="15" width="84" height="29" rx="15" fill="#111722"/><text x="612" y="34" fill="#8c9ab4" font-family="Arial" font-size="10">Overview</text><rect x="682" y="15" width="124" height="29" rx="15" fill="#1d1631" stroke="#3d2d61"/><text x="700" y="34" fill="#fff" font-family="Arial" font-size="10" font-weight="700">Review Queue</text><circle cx="787" cy="29" r="8" fill="#d55bdc"/><text x="784" y="33" fill="#fff" font-family="Arial" font-size="8">2</text><rect x="1305" y="15" width="70" height="29" rx="15" fill="#111722" stroke="#222b3a"/><circle cx="1323" cy="29" r="4" fill="#69f3bc"/><text x="1334" y="34" fill="#cbd5e1" font-family="Arial" font-size="10" font-weight="700">LIVE</text>
<g font-family="Arial" filter="url(#shadow)"><rect x="22" y="77" width="1356" height="88" rx="14" fill="#111621" stroke="#222b3a"/><text x="43" y="107" fill="#9ab0d8" font-size="12" font-weight="700">REVIEW QUEUE</text><text x="1171" y="107" fill="#5f7294" font-size="10">human approval · approving does not publish</text><g font-size="10"><rect x="43" y="125" width="67" height="26" rx="13" fill="#271d43" stroke="#775cc3"/><text x="60" y="142" fill="#fff" font-weight="700">Waiting</text><rect x="119" y="125" width="72" height="26" rx="13" fill="#0f1420" stroke="#252f40"/><text x="137" y="142" fill="#b1bdd1">Approved</text><rect x="200" y="125" width="116" height="26" rx="13" fill="#0f1420" stroke="#252f40"/><text x="216" y="142" fill="#b1bdd1">Revision Requested</text><rect x="325" y="125" width="75" height="26" rx="13" fill="#0f1420" stroke="#252f40"/><text x="343" y="142" fill="#b1bdd1">Rejected</text><rect x="409" y="125" width="45" height="26" rx="13" fill="#0f1420" stroke="#252f40"/><text x="424" y="142" fill="#b1bdd1">All</text></g>
<rect x="22" y="181" width="244" height="248" rx="14" fill="#101520" stroke="#222b3a"/><rect x="35" y="194" width="218" height="64" rx="9" fill="#1e1a32" stroke="#615292"/><text x="46" y="216" fill="#fff" font-size="12" font-weight="700">Task #36</text><rect x="164" y="202" width="78" height="18" rx="9" fill="#573b20"/><text x="176" y="215" fill="#ffbd5d" font-size="8" font-weight="700">AWAITING REVIEW</text><text x="46" y="241" fill="#7184a5" font-size="9">Created Aug 30, 12:07 PM</text><rect x="35" y="270" width="218" height="58" rx="9" fill="#111621"/><text x="46" y="291" fill="#fff" font-size="12" font-weight="700">Task #30</text><text x="46" y="314" fill="#7184a5" font-size="9">Created Aug 29, 05:46 PM</text>
<rect x="280" y="181" width="1098" height="704" rx="14" fill="#111621" stroke="#222b3a"/><text x="300" y="213" fill="#6f83a5" font-size="10" letter-spacing="1">VERSION</text><g font-size="10"><rect x="360" y="195" width="36" height="26" rx="13" fill="#0e1420" stroke="#263249"/><text x="371" y="212" fill="#9db0ca">V1</text><rect x="402" y="195" width="36" height="26" rx="13" fill="#0e1420" stroke="#263249"/><text x="413" y="212" fill="#9db0ca">V2</text><rect x="444" y="195" width="36" height="26" rx="13" fill="#271d43" stroke="#775cc3"/><text x="455" y="212" fill="#fff" font-weight="700">V3</text></g>
<rect x="300" y="232" width="1058" height="366" rx="10" fill="#020304"/><rect x="650" y="246" width="360" height="338" rx="8" fill="#111820"/><text x="708" y="282" fill="#fff" font-size="26" font-weight="700">POV: your BMW</text>
<g transform="translate(688 326) scale(1.03)"><ellipse cx="150" cy="173" rx="132" ry="18" fill="#05070a" opacity=".45"/><path d="M25 132 C38 101 72 82 128 76 L215 83 C246 91 266 110 286 135 L279 162 C214 171 120 173 39 161 Z" fill="#eef2f5" stroke="#6c7682" stroke-width="2"/><path d="M84 80 C111 49 178 48 217 82 L198 105 L74 103 Z" fill="#dfe7ef" stroke="#667280" stroke-width="2"/><path d="M94 80 C116 61 148 57 171 63 L159 103 L76 101 Z" fill="#26313b" opacity=".92"/><path d="M176 64 C193 68 207 74 218 85 L198 104 L165 103 Z" fill="#1d2832" opacity=".95"/><path d="M26 133 L63 115 L111 117 L96 140 L33 145 Z" fill="#f8fbff"/><path d="M187 111 L240 119 L267 142 L204 139 Z" fill="#f8fbff"/><path d="M46 122 C58 111 82 105 105 107 L99 122 C78 122 58 125 46 132 Z" fill="#10141b"/><rect x="68" y="123" width="32" height="9" rx="5" fill="#bfefff"/><rect x="191" y="119" width="42" height="10" rx="5" fill="#bfefff"/><path d="M91 130 C105 123 132 124 151 132 L147 143 C126 137 106 137 91 142 Z" fill="#05070a"/><path d="M111 128 C120 124 135 124 145 129 L143 142 C132 138 119 138 110 142 Z" fill="#111"/><path d="M38 147 L110 145 L116 159 L28 159 Z" fill="#0b0e12"/><path d="M201 144 L272 146 L266 160 L196 158 Z" fill="#0b0e12"/><circle cx="92" cy="162" r="33" fill="#10141a"/><circle cx="92" cy="162" r="24" fill="#b27a37"/><circle cx="92" cy="162" r="9" fill="#2e3338"/><g stroke="#24140b" stroke-width="3" stroke-linecap="round"><line x1="92" y1="138" x2="92" y2="186"/><line x1="68" y1="162" x2="116" y2="162"/><line x1="75" y1="145" x2="109" y2="179"/><line x1="109" y1="145" x2="75" y2="179"/></g><circle cx="229" cy="162" r="31" fill="#10141a"/><circle cx="229" cy="162" r="23" fill="#b27a37"/><circle cx="229" cy="162" r="8" fill="#2e3338"/><g stroke="#24140b" stroke-width="3" stroke-linecap="round"><line x1="229" y1="139" x2="229" y2="185"/><line x1="206" y1="162" x2="252" y2="162"/><line x1="213" y1="146" x2="245" y2="178"/><line x1="245" y1="146" x2="213" y2="178"/></g><path d="M29 156 L14 157 L19 142 L31 137 Z" fill="#10141a"/><path d="M254 112 L282 130 L288 153 L278 158 L263 139 Z" fill="#d82332"/><path d="M72 103 C87 91 222 92 250 121" fill="none" stroke="#ffffff" stroke-width="4" opacity=".55"/></g>
<text x="652" y="566" fill="#dbe5f2" font-size="10">▶ 0:00 / 0:21</text>
<text x="300" y="624" fill="#7389ad" font-size="10" letter-spacing="1">CONTENT / BAITER</text><text x="300" y="651" fill="#90a2bd" font-size="10">Brief</text><text x="1315" y="651" fill="#fff" font-size="10">Task #3</text><text x="300" y="676" fill="#9d74ff" font-size="10" font-weight="700">VIEW FULL BRIEF →</text><line x1="300" y1="698" x2="1358" y2="698" stroke="#212a39"/>
<text x="300" y="724" fill="#7389ad" font-size="10" letter-spacing="1">PRODUCTION / RENDER</text><text x="300" y="750" fill="#90a2bd" font-size="10">Task</text><text x="1315" y="750" fill="#fff" font-size="10">#36</text><text x="300" y="775" fill="#90a2bd" font-size="10">Duration</text><text x="1310" y="775" fill="#fff" font-size="10">22.0s</text><text x="300" y="801" fill="#9d74ff" font-size="10" font-weight="700">VIEW PRODUCTION REPORT →</text><line x1="300" y1="818" x2="1358" y2="818" stroke="#212a39"/>
<text x="300" y="846" fill="#7389ad" font-size="10" letter-spacing="1">HUMAN REVIEW</text><rect x="300" y="858" width="82" height="28" rx="8" fill="#0f1819" stroke="#48cf9c"/><text x="320" y="876" fill="#63e8b2" font-size="10" font-weight="700">APPROVE</text><rect x="392" y="858" width="132" height="28" rx="8" fill="#101922" stroke="#35c8e6"/><text x="408" y="876" fill="#3ad8f5" font-size="10" font-weight="700">REQUEST REVISION</text><rect x="534" y="858" width="72" height="28" rx="8" fill="#1a1217" stroke="#9e5567"/><text x="552" y="876" fill="#f48ba1" font-size="10" font-weight="700">REJECT</text></g>
</svg>